<?xml version="1.0" standalone="no"?>
<!DOCTYPE svg PUBLIC "-//W3C//DTD SVG 20010904//EN"
 "http://www.w3.org/TR/2001/REC-SVG-20010904/DTD/svg10.dtd">
<svg version="1.0" xmlns="http://www.w3.org/2000/svg"
 width="5000.000000pt" height="3125.000000pt" viewBox="0 0 5000.000000 3125.000000"
 preserveAspectRatio="xMidYMid meet">

<g transform="translate(0.000000,3125.000000) scale(0.100000,-0.100000)"
fill="#000000" stroke="none">
<path d="M24440 23814 c-316 -185 -632 -369 -702 -410 l-127 -74 -598 0 -598
0 -515 -298 c-730 -424 -1753 -1016 -2247 -1303 -233 -134 -423 -247 -423
-250 0 -8 567 -362 587 -367 7 -2 250 136 540 306 739 433 1382 808 1620 946
l202 116 523 0 522 -1 880 518 c484 285 885 521 891 525 6 4 132 -61 281 -145
148 -84 565 -320 926 -525 l657 -372 597 0 597 0 116 -62 c148 -78 809 -439
1574 -860 l599 -328 239 137 c131 76 238 140 238 143 1 3 -715 413 -1589 913
l-1590 907 -555 0 -556 0 -287 156 c-158 87 -495 271 -749 410 -254 140 -466
254 -470 254 -4 0 -267 -152 -583 -336z"/>
<path d="M25031 21702 l-1994 -2 -489 -287 c-380 -224 -485 -290 -476 -299 7
-6 243 -151 523 -321 1135 -690 1260 -766 1270 -775 5 -4 -495 -8 -1111 -8
l-1119 0 -369 215 c-203 119 -370 214 -372 212 -2 -2 231 -140 519 -307 1089
-634 1490 -868 3215 -1884 222 -131 409 -235 417 -232 8 3 218 125 467 272
995 587 2163 1273 2528 1484 212 122 389 226 395 231 5 5 -453 9 -1080 9
l-1090 0 895 511 c492 281 908 519 923 528 l29 18 -189 111 c-103 60 -348 204
-543 319 l-355 208 -1994 -3z"/>
<path d="M19020 17771 l0 -3348 1003 -581 c2261 -1309 2734 -1582 2742 -1582
3 0 5 162 5 361 l0 360 53 -29 c158 -88 983 -556 1452 -823 l540 -307 3 266
c1 146 -1 269 -5 273 -5 4 -541 319 -1193 700 -1886 1101 -2196 1281 -2182
1268 9 -10 12 -83 12 -296 0 -156 -2 -283 -4 -283 -7 0 -264 145 -1083 610
l-783 445 -2 3010 -3 3010 -165 88 c-91 48 -216 115 -277 147 l-113 60 0
-3349z"/>
<path d="M30220 20664 c-162 -86 -298 -159 -302 -163 -8 -7 10 -2691 20 -2977
l7 -201 288 853 287 852 -2 896 -3 896 -295 -156z"/>
<path d="M28813 20232 c-193 -114 -355 -211 -360 -216 -10 -12 -38 -28 352
199 349 203 386 226 370 224 -6 0 -168 -94 -362 -207z"/>
<path d="M20650 19935 c0 -57 5 -86 21 -117 21 -41 21 -45 14 -573 l-8 -532
44 -25 c24 -14 166 -96 314 -182 149 -87 297 -173 330 -192 l60 -35 165 -337
165 -337 5 -844 5 -844 335 -193 c184 -107 439 -253 567 -326 l231 -133 381
-779 381 -779 0 -126 c0 -69 3 -135 6 -147 4 -15 167 -115 591 -360 322 -186
589 -340 594 -342 5 -2 9 1007 9 2425 l0 2428 -2079 1204 c-1144 662 -2083
1203 -2088 1203 -4 0 -16 4 -25 9 -16 9 -18 3 -18 -66z"/>
<path d="M29454 19994 c-17 -7 -942 -540 -2055 -1184 -1113 -645 -2043 -1182
-2065 -1196 -34 -19 -42 -30 -48 -61 -3 -21 -6 -1115 -6 -2432 0 -2102 2
-2392 15 -2387 11 4 1170 672 1183 682 2 1 3 61 3 132 l-2 129 381 779 c209
428 387 788 395 800 7 11 73 55 147 97 73 42 322 186 553 319 l420 243 5 830
5 830 174 356 174 356 171 99 c94 54 257 149 361 210 l190 112 5 538 c4 414 8
544 18 562 8 14 12 52 10 110 l-3 89 -31 -13z"/>
<path d="M30803 18948 l-272 -475 -7 -1837 -7 -1837 -266 -151 c-146 -83 -473
-269 -726 -413 -590 -336 -756 -428 -761 -423 -2 2 50 163 116 358 66 194 119
354 118 355 -3 2 -571 -329 -2830 -1648 l-888 -519 0 -270 c0 -148 4 -268 8
-266 5 2 271 153 593 335 1106 630 1514 860 1517 858 1 -1 -135 -242 -303
-535 -168 -293 -304 -534 -303 -536 2 -1 44 21 93 50 50 29 239 138 420 243
319 184 1539 890 3035 1755 399 231 728 423 733 427 4 4 6 1131 5 2506 l-3
2498 -272 -475z"/>
</g>
</svg>
